<svg width="623" height="660" viewBox="0 0 623 660" fill="none" xmlns="http://www.w3.org/2000/svg">
<g clip-path="url(#clip0_9834_12385)">
<path d="M615.2 646.2C613.5 651.9 602.3 657.9 600.7 657.9H22.5C20.8 657.9 9.7 651.9 8 646.2L8.2 19.3V12C8.2 12 16.1 2.30002 23.4 1.40002H599.8C607.1 2.20002 614.9 12 614.9 12V19.3L615.2 646.2Z" fill="#242424" fill-opacity="0.866667"/>
<path d="M611.9 0H11L0 11.5V648.5L11 660H612L623 648.5V11.5L611.9 0ZM3 12.8L12.2 3.2H18.1C13.5366 5.2869 9.67961 8.65742 7 12.9H6.9V13.1C5.23195 15.7851 3.92091 18.6761 3 21.7V12.8ZM3 26.9C3.77554 23.0042 5.08806 19.2349 6.9 15.7V644.3C6.4742 643.633 6.1062 642.93 5.8 642.2C4.55942 639.295 3.58867 636.283 2.9 633.2L3 26.9ZM12.2 656.8L3 647.2V638.3C3.96365 641.308 5.27236 644.194 6.9 646.9V647.1H7C9.61889 651.418 13.4906 654.836 18.1 656.9H12.2V656.8ZM22.3 656.8C16.6396 655.424 11.7306 651.912 8.6 647V13C11.8225 8.1118 16.737 4.58618 22.4 3.1H600.6C606.26 4.476 611.169 7.98754 614.3 12.9V646.9C611.078 651.788 606.163 655.314 600.5 656.8H22.3ZM619.9 647.2L610.7 656.8H604.8C609.409 654.736 613.281 651.318 615.9 647H616V646.8C617.668 644.115 618.979 641.224 619.9 638.2V647.2ZM619.9 633.1C619.14 637 617.827 640.771 616 644.3V15.7C616.426 16.3674 616.794 17.0699 617.1 17.8C618.341 20.7047 619.311 23.7174 620 26.8L619.9 633.1ZM619.9 21.7C618.936 18.6924 617.628 15.8065 616 13.1V12.9H615.9C613.281 8.58187 609.409 5.16359 604.8 3.1H610.7L619.9 12.7V21.7Z" fill="#CF9F25"/>
</g>
<defs>
<clipPath id="clip0_9834_12385">
<rect width="623" height="660" fill="white"/>
</clipPath>
</defs>
</svg>
